<svg width="99" height="34" viewBox="0 0 99 34" fill="none" xmlns="http://www.w3.org/2000/svg">
<g clip-path="url(#clip0_1_28)">
<path fill-rule="evenodd" clip-rule="evenodd" d="M17.5824 18.3953C7.6938 10.8022 0.239144 17.017 0.113403 26.0691C6.93037 19.3143 13.2983 22.6191 17.5824 18.3953ZM18.1932 19.8704C16.9537 33.5172 7.42435 22.4418 0.490627 27.2218C4.35267 22.2242 11.7175 23.8363 18.1932 19.8704Z" fill="white"/>
<path fill-rule="evenodd" clip-rule="evenodd" d="M19.765 21.2245C18.1843 24.4891 19.1273 27.3023 22.9265 29.1321C25.3874 30.317 27.9651 31.639 30.3901 33.4043C26.2586 29.7608 25.2347 23.5218 19.765 21.2245ZM21.3188 20.6522C29.8961 19.9348 35.8509 26.4721 32.4649 33.7267C27.552 30.1477 27.4711 23.7637 21.3188 20.6522Z" fill="white"/>
<path fill-rule="evenodd" clip-rule="evenodd" d="M18.2202 16.9283C18.5436 13.6234 17.1964 10.9392 15.0767 8.52099C13.5678 6.796 13.0828 4.02312 13.6307 0.170105C8.16994 6.78794 10.4423 13.0592 18.2202 16.9283ZM14.1875 0.839143C15.93 4.45034 18.2741 7.45698 21.0853 9.97192C22.6751 11.3825 21.8488 13.6315 20.0615 16.485C20.1872 10.7054 12.9032 7.19097 14.1875 0.839143Z" fill="white"/>
<path d="M34.3419 18.347V17.8956C33.6953 17.823 33.3001 17.5973 32.9229 16.8638C32.5277 16.0658 32.2223 15.3 32.0067 14.8889C31.5487 13.9861 30.9829 13.6395 30.2194 13.4622V13.4219C30.435 13.301 31.0727 12.898 31.5487 11.9387C32.1774 10.6732 32.4379 10.4394 32.9857 10.4394H33.2642C33.5246 10.4394 33.848 10.2782 33.848 9.97192C33.848 9.60113 33.5246 9.32706 32.9947 9.32706C32.3031 9.34319 31.863 9.73816 31.4319 10.6893C30.9469 11.7856 30.6685 12.3095 30.2554 12.7206C29.7973 13.1478 29.2943 13.301 28.6387 13.301V11.3745C28.6387 10.1654 28.7465 10.0686 29.7524 9.98804V9.53664H25.576V9.98804C26.5999 10.0686 26.7077 10.1654 26.7077 11.3745V16.493C26.7077 17.7183 26.5999 17.8069 25.576 17.8956V18.347H29.7524V17.8956C28.7465 17.815 28.6387 17.7183 28.6387 16.485V13.7927C29.3841 13.7766 29.7434 14.1232 30.1206 15.1791C30.408 15.9771 30.6685 16.7187 30.8571 17.0976C31.2433 17.9359 31.6565 18.347 32.7073 18.347H34.3419ZM35.1323 9.53664V9.98804C36.0844 10.0848 36.1832 10.1976 36.1832 11.3181V16.6139C36.1832 17.7424 36.0754 17.8472 35.0515 17.944V18.3389H39.3985V17.944C38.204 17.8472 38.1142 17.7344 38.1142 16.6139V14.6794L39.0033 14.897C39.174 14.897 39.3267 14.897 39.5422 14.8728C41.1499 14.6955 42.5421 13.8411 42.5421 12.0596C42.5421 11.1407 42.1289 10.4556 41.4373 10.0445C40.8446 9.6898 40.0901 9.53664 38.9135 9.53664H35.1323ZM38.1142 10.5926C38.1142 10.375 38.1411 10.2218 38.2669 10.1573C38.3567 10.0848 38.5004 10.0364 38.7519 10.0364C39.5512 10.0364 40.4314 10.52 40.4314 12.1241C40.4314 13.9781 39.2728 14.2925 38.8237 14.2925C38.5363 14.2925 38.3028 14.236 38.1052 14.1715V10.5926H38.1142ZM53.1672 18.347V17.8956C52.1163 17.815 52.0086 17.686 52.0086 16.485V11.3422C52.0086 10.1896 52.1343 10.0767 53.1851 9.9961V9.5447H49.9159V9.70592C49.9159 9.82683 49.8889 9.96386 49.7812 10.1412L46.5388 16.8961H46.5119C46.5927 15.3565 46.5927 14.5746 46.5927 13.9861V11.4228C46.5927 10.1976 46.7185 10.0767 47.7244 9.9961V9.5447H43.4851V9.9961C44.5539 10.0767 44.6797 10.2137 44.6797 11.439V16.4608C44.6797 17.6941 44.5719 17.823 43.5031 17.9036V18.355H46.7903V18.1938C46.7903 18.0326 46.7903 17.8633 46.8981 17.6457L50.1225 10.8667H50.1674C50.1045 12.3176 50.1045 13.0108 50.1045 13.4461V16.493C50.1045 17.7021 49.9967 17.823 48.9908 17.9036V18.355H53.1672V18.347ZM61.8523 16.0013C61.1967 17.2265 60.4332 17.9601 59.3465 17.9601C57.6939 17.9601 56.4544 16.2593 56.4544 13.8008C56.4544 11.7533 57.5412 9.89937 59.2656 9.89937C60.2716 9.89937 61.1428 10.3669 61.6188 11.8501L62.1397 11.7533C62.0589 11.0118 61.987 10.3911 61.8792 9.64143C61.4661 9.56083 60.532 9.35125 59.571 9.35125C56.3107 9.35125 54.236 11.2858 54.236 14.0748C54.236 16.219 55.6102 18.5243 59.1938 18.5243C60.1458 18.5243 61.2775 18.2906 61.6547 18.1938C61.8882 17.7263 62.1936 16.7671 62.3732 16.1625L61.8523 16.0013ZM70.8608 11.6888C70.7979 10.8505 70.726 9.75428 70.7081 9.19003H70.3398C70.1063 9.44798 69.9087 9.53664 69.5584 9.53664H64.2683C63.8552 9.53664 63.6845 9.4641 63.46 9.19003H63.0918C63.0738 9.87519 62.984 10.8264 62.9211 11.7292H63.442C63.6127 11.1246 63.7654 10.6732 63.9809 10.4394C64.2144 10.1815 64.5288 10.0848 65.3731 10.0848H65.9209V16.5736C65.9209 17.7021 65.7952 17.8069 64.6545 17.8875V18.3389H69.1812V17.8875C67.9867 17.8069 67.8699 17.6941 67.8699 16.5736V10.0848H68.5615C69.1722 10.0848 69.5584 10.1573 69.8009 10.383C70.0345 10.6168 70.1871 11.0279 70.3668 11.713L70.8608 11.6888ZM80.6326 18.347V17.8956C79.7884 17.815 79.6088 17.6618 79.1327 16.4447C78.1987 14.0829 77.3724 11.7372 76.4742 9.35931L75.7557 9.51246L72.8816 16.622C72.4684 17.6618 72.2349 17.815 71.3637 17.8956V18.347H74.5252V17.8956C73.5013 17.7747 73.4385 17.6054 73.672 16.8799C73.8426 16.3479 74.0043 15.8885 74.13 15.5499H76.7436C76.9233 16.0013 77.1119 16.5495 77.2466 16.9605C77.4891 17.6296 77.4173 17.7989 76.5999 17.8956V18.347H80.6326ZM76.5011 14.8486H74.3635C74.7318 13.8572 75.0372 12.8899 75.4324 11.8742H75.4773L76.5011 14.8486ZM89.5782 18.347V17.8956C88.5543 17.815 88.4466 17.686 88.4466 16.4688V11.1568C88.4466 10.1654 88.5543 10.0686 89.5782 9.98804V9.53664H82.0248V9.98804C83.0936 10.0606 83.3361 10.2057 83.3361 10.7861C83.3361 13.1881 83.0038 15.1469 82.4379 16.4124C82.1146 17.1298 81.7463 17.686 81.0638 18.1535V18.4437C81.2434 18.5163 81.5847 18.5646 81.9529 18.5646C82.3032 18.5646 82.5996 18.355 82.887 17.8875C83.7582 16.5414 84.1444 13.7443 84.1444 10.5845C84.1444 10.1734 84.2073 10.0767 84.6833 10.0767H86.0305C86.4886 10.0767 86.5065 10.1331 86.5065 10.7619V16.4608C86.5065 17.686 86.3988 17.8069 85.3749 17.8875V18.3389H89.5782V18.347ZM98.8382 18.347V17.8956C97.8143 17.815 97.7065 17.686 97.7065 16.4688V11.1568C97.7065 10.1654 97.8143 10.0686 98.8382 9.98804V9.53664H91.2847V9.98804C92.3535 10.0606 92.596 10.2057 92.596 10.7861C92.596 13.1881 92.2637 15.1469 91.6979 16.4124C91.3745 17.1298 91.0063 17.686 90.3237 18.1535V18.4437C90.5033 18.5163 90.8446 18.5646 91.2129 18.5646C91.5631 18.5646 91.8595 18.355 92.1469 17.8875C93.0181 16.5414 93.4044 13.7443 93.4044 10.5845C93.4044 10.1734 93.4672 10.0767 93.9432 10.0767H95.2905C95.7485 10.0767 95.7665 10.1331 95.7665 10.7619V16.4608C95.7665 17.686 95.6587 17.8069 94.6348 17.8875V18.3389H98.8382V18.347Z" fill="white"/>
<path d="M29.483 3.99898C29.4471 3.66043 29.4202 3.09618 29.4112 2.95915H26.124V3.17679C26.6449 3.21709 26.6988 3.27352 26.6988 3.91838V6.50586C26.6988 7.07817 26.6449 7.1346 26.124 7.1749V7.4006H28.3424V7.1749C27.7317 7.1346 27.6867 7.07817 27.6867 6.50586V3.46698C27.6867 3.23322 27.6867 3.23322 27.9562 3.23322H28.3334C28.7106 3.23322 28.8543 3.28964 28.9711 3.45891C29.0699 3.59595 29.1238 3.77328 29.2226 4.02316L29.483 3.99898ZM29.9411 2.95915V3.18485C30.4171 3.23322 30.471 3.28964 30.471 3.85389V6.53004C30.471 7.09429 30.4171 7.15072 29.8962 7.19908V7.4006H32.0877V7.20714C31.4859 7.15878 31.441 7.10235 31.441 6.5381V5.5547L31.8901 5.66755C31.9709 5.66755 32.0518 5.66755 32.1595 5.65143C32.9679 5.56276 33.6684 5.13554 33.6684 4.23274C33.6684 3.76522 33.4619 3.41861 33.1116 3.21709C32.8242 3.0317 32.4469 2.95915 31.8542 2.95915H29.9411ZM31.45 3.49116C31.45 3.37831 31.468 3.30576 31.5308 3.27352C31.5757 3.24128 31.6476 3.20903 31.7823 3.20903C32.1865 3.20903 32.6356 3.45085 32.6356 4.26499C32.6356 5.20003 32.0518 5.36124 31.8272 5.36124C31.6835 5.36124 31.5668 5.33706 31.468 5.29676V3.49116H31.45ZM38.4466 2.95915H36.8838V3.18485L37.1622 3.24128C37.3868 3.28964 37.4047 3.37025 37.297 3.66043C37.0724 4.32141 36.8299 4.86954 36.5784 5.49021L35.6893 3.55564C35.5995 3.36219 35.6084 3.28158 35.7611 3.24128L36.0036 3.18485V2.95915H33.9469V3.18485C34.4139 3.24934 34.4857 3.32994 34.6205 3.59595C34.8091 3.94256 35.6533 5.67561 35.833 6.03834C35.9497 6.28016 36.0036 6.43331 36.0036 6.55423C36.0036 6.81217 35.797 7.02981 35.6174 7.02981C35.5096 7.02981 35.3749 6.97338 35.2671 6.9089C35.0965 6.82023 34.9618 6.81217 34.845 6.88471C34.7462 6.93308 34.6654 7.04593 34.6654 7.1749C34.6564 7.41672 34.9438 7.57793 35.2222 7.57793C35.6174 7.57793 36.0306 7.4006 36.4707 6.4575C36.7221 5.94161 37.3778 4.41008 37.6383 3.84583C37.8628 3.36219 37.9436 3.26546 38.4466 3.18485V2.95915ZM43.4493 7.40866V7.1749C42.9284 7.1346 42.8655 7.07817 42.8655 6.44138V3.91031C42.8655 3.28158 42.9284 3.22515 43.4583 3.18485V2.95915H38.6801V3.18485C39.237 3.22515 39.2909 3.28158 39.2909 3.90225V6.44138C39.2909 7.07817 39.237 7.1346 38.7071 7.1749V7.4006H40.8087V7.1749C40.3417 7.1346 40.2878 7.07817 40.2878 6.44138V3.49116C40.2878 3.24934 40.3058 3.23322 40.5662 3.23322H41.6171C41.8775 3.23322 41.8865 3.24128 41.8865 3.50728V6.44138C41.8865 7.07817 41.8326 7.1346 41.3476 7.1749V7.4006H43.4493V7.40866ZM48.7125 7.40866V7.1749C48.1915 7.1346 48.1287 7.07817 48.1287 6.44138V3.91031C48.1287 3.28158 48.1915 3.22515 48.7214 3.18485V2.95915H43.9433V3.18485C44.5001 3.22515 44.554 3.28158 44.554 3.90225V6.44138C44.554 7.07817 44.5001 7.1346 43.9702 7.1749V7.4006H46.0719V7.1749C45.6049 7.1346 45.551 7.07817 45.551 6.44138V3.49116C45.551 3.24934 45.5689 3.23322 45.8294 3.23322H46.8802C47.1407 3.23322 47.1497 3.24128 47.1497 3.50728V6.44138C47.1497 7.07817 47.0958 7.1346 46.6108 7.1749V7.4006H48.7125V7.40866ZM53.7421 7.40866V7.1749C53.32 7.1346 53.2212 7.05399 52.9877 6.44138C52.5206 5.24839 52.0985 4.06347 51.6404 2.87048L51.2812 2.94303L49.8262 6.53004C49.6196 7.05399 49.5028 7.1346 49.0627 7.1749V7.4006H50.6614V7.1749C50.1405 7.11041 50.1136 7.02981 50.2303 6.65901C50.3112 6.38495 50.401 6.15925 50.4639 5.98998H51.7841C51.8739 6.21568 51.9727 6.4978 52.0356 6.70738C52.1614 7.04593 52.1164 7.12653 51.7123 7.1749V7.4006H53.7421V7.40866ZM51.6584 5.63531H50.5806C50.7692 5.13554 50.9219 4.64384 51.1195 4.13601H51.1464L51.6584 5.63531Z" fill="white"/>
</g>
<defs>
<clipPath id="clip0_1_28">
<rect width="98.7247" height="33.5567" fill="white" transform="translate(0.113403 0.170105)"/>
</clipPath>
</defs>
</svg>
